<?xml version="1.0" standalone="no"?>
<!DOCTYPE svg PUBLIC "-//W3C//DTD SVG 20010904//EN"
 "http://www.w3.org/TR/2001/REC-SVG-20010904/DTD/svg10.dtd">
<svg version="1.0" xmlns="http://www.w3.org/2000/svg"
 width="400.000000pt" height="400.000000pt" viewBox="0 0 400.000000 400.000000"
 preserveAspectRatio="xMidYMid meet">
<metadata>
Created by potrace 1.14, written by Peter Selinger 2001-2017
</metadata>
<g transform="translate(0.000000,400.000000) scale(0.100000,-0.100000)"
fill="#000000" stroke="none">
<path d="M1849 3996 c-2 -2 -36 -6 -75 -9 -39 -4 -77 -9 -85 -11 -8 -3 -33 -7
-57 -10 -24 -3 -46 -7 -50 -10 -4 -2 -25 -7 -47 -10 -69 -11 -304 -95 -404
-145 -274 -136 -451 -276 -680 -535 -66 -75 -183 -259 -246 -389 -102 -209
-162 -413 -192 -652 -14 -104 -7 -432 10 -530 31 -175 45 -228 88 -352 118
-335 311 -618 579 -852 307 -267 678 -430 1090 -479 117 -14 479 -6 531 12 7
3 30 7 49 10 150 22 459 126 550 186 14 9 37 21 52 28 43 18 216 133 288 191
267 214 492 522 615 839 37 95 89 279 100 352 4 25 9 54 11 65 25 131 25 463
1 612 -35 212 -97 404 -193 594 -50 100 -166 284 -216 340 -13 15 -33 40 -46
55 -32 41 -181 191 -221 222 -18 15 -45 37 -60 50 -63 56 -256 176 -371 231
-101 48 -344 141 -365 140 -4 0 -96 19 -125 26 -3 1 -28 5 -55 9 -28 4 -64 9
-80 12 -37 6 -391 15 -396 10z"/>
</g>
</svg>
